<?xml version="1.0" encoding="UTF-8" standalone="no"?> <svg id="Layer_1" data-name="Layer 1" xmlns="http://www.w3.org/2000/svg" viewBox="0 0 110 110"><path d="M95.77,96.49H14.23A8.24,8.24,0,0,1,6,88.26V86.49A2.5,2.5,0,0,1,8.5,84h93a2.5,2.5,0,0,1,2.5,2.5v1.77A8.24,8.24,0,0,1,95.77,96.49ZM8.5,86a.5.5,0,0,0-.5.5v1.77a6.24,6.24,0,0,0,6.23,6.23H95.77A6.24,6.24,0,0,0,102,88.26V86.49a.5.5,0,0,0-.5-.5Z"/><path d="M66.67,90.61H43.33a3.68,3.68,0,0,1-3.67-3.67V85a1,1,0,0,1,1-1H69.34a1,1,0,0,1,1,1v2A3.68,3.68,0,0,1,66.67,90.61ZM41.66,86v1a1.67,1.67,0,0,0,1.67,1.67H66.67a1.65,1.65,0,0,0,1.67-1.67V86Z"/><path d="M98,86H12a1,1,0,0,1-1-1V31.93a7,7,0,0,1,7-7h49a1,1,0,0,1,1,1V40.17H73.8a1,1,0,0,1,1,1v6.24l9.64-7a1,1,0,0,1,.59-.19H98a1,1,0,0,1,1,1V85A1,1,0,0,1,98,86ZM13,84H97V42.17H85.36l-11,8a1,1,0,0,1-1,.09,1,1,0,0,1-.55-.89V42.17H67.07a1,1,0,0,1-1-1V26.93H18a5,5,0,0,0-5,5Z"/><path d="M91.36,86H18.64a1,1,0,0,1-1-1V35.52a4,4,0,0,1,4-4H67.07a1,1,0,0,1,1,1v7.65H73.8a1,1,0,0,1,1,1v6.24l9.64-7a1,1,0,0,1,.59-.19h6.33a1,1,0,0,1,1,1V85A1,1,0,0,1,91.36,86ZM19.64,84H90.36V42.17h-5l-11,8a1,1,0,0,1-1,.09,1,1,0,0,1-.55-.89V42.17H67.07a1,1,0,0,1-1-1V33.52H21.64a2,2,0,0,0-2,2Z"/><path d="M54.89,63.92a.93.93,0,0,1-.6-.21l-23.41-7a1,1,0,0,1,0-1.92l23.79-7.09a1.07,1.07,0,0,1,.75,0l0,0,23.66,7a1,1,0,0,1,0,1.92l-23.49,7a1,1,0,0,1-.62.17ZM34.67,55.79,55,61.84l20.33-6.05L55,49.74Z"/><path d="M55,77.81a39.74,39.74,0,0,1-10-1.16l-.08,0c-3.49-1-5.45-2.44-5.83-4.35a5.45,5.45,0,0,1-.05-.62V58.43a1,1,0,0,1,.4-.8,1,1,0,0,1,.89-.16L55,61.85l14.73-4.39a1,1,0,0,1,.89.15,1,1,0,0,1,.4.81V71.66a4.9,4.9,0,0,1,0,.54c-.39,2-2.35,3.45-5.86,4.43l-.12,0A39.27,39.27,0,0,1,55,77.81Zm-9.63-3.13.08,0a41.18,41.18,0,0,0,19.12,0l.12,0C67.23,74,68.8,72.94,69,71.89c0,0,0-.12,0-.23V59.76l-13.4,4a1.06,1.06,0,0,1-.6.16,1,1,0,0,1-.72-.19L41,59.77V71.66A3,3,0,0,0,41,72C41.23,73,42.81,74,45.36,74.68Z"/><path d="M78.83,66.65a1,1,0,0,1-1-1V55.84a1,1,0,0,1,2,0v9.81A1,1,0,0,1,78.83,66.65Z"/><path d="M81.41,74.87H76.26a1,1,0,0,1-1-1V68.23a3.58,3.58,0,0,1,7.15,0v5.64A1,1,0,0,1,81.41,74.87Zm-4.15-2h3.15V68.23a1.58,1.58,0,0,0-3.15,0Z"/><path d="M81.41,71.69H76.26a1,1,0,1,1,0-2h5.15a1,1,0,0,1,0,2Z"/><path d="M46.17,39.9H25.83a1,1,0,1,1,0-2H46.17a1,1,0,0,1,0,2Z"/><path d="M37.67,45.74H25.83a1,1,0,1,1,0-2H37.67a1,1,0,0,1,0,2Z"/><path d="M81.41,78.36a1,1,0,0,1-1-1V73.87a1,1,0,0,1,2,0v3.49A1,1,0,0,1,81.41,78.36Z"/><path d="M76.26,78.36a1,1,0,0,1-1-1V73.87a1,1,0,0,1,2,0v3.49A1,1,0,0,1,76.26,78.36Z"/><path d="M73.8,50.38a1,1,0,0,1-.45-.11,1,1,0,0,1-.55-.89V42.16H67.07a1,1,0,0,1-1-1V14.51a1,1,0,0,1,1-1H103a1,1,0,0,1,1,1V41.16a1,1,0,0,1-1,1H85.36l-11,8A1,1,0,0,1,73.8,50.38ZM68.07,40.16H73.8a1,1,0,0,1,1,1v6.25l9.64-7.06a1,1,0,0,1,.59-.19h17V15.51H68.07Z"/><path d="M77.94,34.86a.94.94,0,0,1-.27-.68,1.18,1.18,0,0,1,.11-.43L83.2,20.94a1.75,1.75,0,0,1,.48-.62,1.16,1.16,0,0,1,.76-.25h.21a1.16,1.16,0,0,1,.76.25,1.62,1.62,0,0,1,.47.62l5.43,12.81a1.18,1.18,0,0,1,.11.43.94.94,0,0,1-1,1,1,1,0,0,1-.54-.16,1.08,1.08,0,0,1-.38-.44l-1.38-3.32H80.93l-1.39,3.32a1,1,0,0,1-.37.44,1,1,0,0,1-.54.16A.94.94,0,0,1,77.94,34.86Zm3.73-5.41h5.75l-2.88-6.91Z"/></svg>